# xmcd
#
# Track frame offsets: 
#        150
#        38312
#        45924
#        60639
#        83218
#        103515
#        116230
#        141933
#        162002
#        192528
#        209896
#
# Disc length: 3025 seconds
#
# Revision: 2
# Processed by: cddbd v1.5.2PL0 Copyright (c) Steve Scherf et al.
# Submitted via: ExactAudioCopy v1.0b3
#
DISCID=960bcf0b
DTITLE=オフコース - NEXT SOUND TRACK (紙ジャケット仕様) 24bit Remastering TOCT-2564
DTITLE=6
DYEAR=2005
DGENRE=JPop
TTITLE0=メドレー
TTITLE1=流れゆく時の中で
TTITLE2=眠れぬ夜
TTITLE3=さよなら
TTITLE4=一億の夜を越えて
TTITLE5=さよなら
TTITLE6=NEXTのテーマ −僕等がいた−
TTITLE7=流れゆく時の中で
TTITLE8=I LOVE YOU
TTITLE9=YES-YES-YES
TTITLE10=NEXTのテーマ
EXTD=YEAR: 1982
EXTT0=
EXTT1=
EXTT2=
EXTT3=
EXTT4=
EXTT5=
EXTT6=
EXTT7=
EXTT8=
EXTT9=
EXTT10=
PLAYORDER=
